-----------------------------------------------------------------------------------
Breaking Benjamin - I Will Not Bow HQ MUSIC VIDEO H264 AAC [JAGUAR7]
-----------------------------------------------------------------------------------


-----------------------------------------------------------------------------------
INFO:
-----------------------------------------------------------------------------------

Format                           : MPEG-4
Codec ID                         : M4V 
File size                        : 20.0 MiB
Duration                         : 3mn 37s
Overall bit rate                 : 770 Kbps

Video
------

Format                           : AVC
Format/Info                      : Advanced Video Codec
Format profile                   : Baseline@L3.0
Format settings, CABAC           : No
Format settings, ReFrames        : 1 frame
Codec ID                         : avc1
Codec ID/Info                    : Advanced Video Coding
Duration                         : 3mn 37s
Bit rate mode                    : Variable
Bit rate                         : 639 Kbps
Maximum bit rate                 : 1 164 Kbps
Width                            : 480 pixels
Height                           : 204 pixels
Display aspect ratio             : 2.35:1
Frame rate mode                  : Constant
Frame rate                       : 23.976 fps
Resolution                       : 24 bits
Colorimetry                      : 4:2:0
Scan type                        : Progressive
Bits/(Pixel*Frame)               : 0.272
Stream size                      : 16.6 MiB (83%)


Audio
------
Format                           : AAC
Format/Info                      : Advanced Audio Codec
Format version                   : Version 4
Format profile                   : LC
Format settings, SBR             : No
Codec ID                         : 40
Duration                         : 3mn 37s
Bit rate mode                    : Variable
Bit rate                         : 128 Kbps
Maximum bit rate                 : 132 Kbps
Channel(s)                       : 2 channels
Channel positions                : L R
Sampling rate                    : 48.0 KHz
Resolution                       : 16 bits
Stream size                      : 3.34 MiB (17%)

-----------------------------------------------------------------------------------
Note: I Have Not Tested The File On PSP/iPod Or Any Other Handheld.
      But If It Works Please Comment.
      
      Lyrics Included In Txt File.
-----------------------------------------------------------------------------------
===================================================================================

Band Info: Breaking Benjamin is an American alternative metal band from Wilkes-Barre, Pennsylvania, currently consisting of Benjamin Burnley, Aaron Fink, Mark Klepaski and Chad Szeliga. They have released four albums to date. Their music is also classed as post-grunge.
===================================================================================

Seeding Will Be Slow,Be Patient. Comment About Quality And Compatibility. 

SUPPORT THE GREAT BAND, BUY ORIGINAL CDs/DVDs. 

Support Me. Seed As Much As You Can.

===================================================================================
 
 
http://thepiratebay.org/user/VIVALARAZA7


===================================================================================

SCREENSHOTS:
  
http://img215.imageshack.us/img215/9459/breakingbenjaminiwillno.jpg


===================================================================================